<svg width="19" height="24" viewBox="0 0 19 24" fill="none" xmlns="http://www.w3.org/2000/svg">
<g clip-path="url(#clip0_5_175)">
<path d="M16.0741 10.7425C16.0842 10.8846 16.0842 11.0267 16.0842 11.1689C16.0842 15.5039 12.7847 20.4988 6.75428 20.4988C4.89641 20.4988 3.17053 19.9607 1.71875 19.0267C1.98272 19.0572 2.2365 19.0673 2.51063 19.0673C4.04359 19.0673 5.45478 18.5496 6.58169 17.6663C5.14006 17.6359 3.93194 16.6917 3.51569 15.3922C3.71875 15.4227 3.92178 15.443 4.135 15.443C4.42941 15.443 4.72384 15.4023 4.99794 15.3313C3.49541 15.0267 2.36847 13.7069 2.36847 12.113V12.0724C2.805 12.3161 3.31266 12.4684 3.85069 12.4887C2.96744 11.8998 2.38878 10.8948 2.38878 9.75769C2.38878 9.14856 2.55119 8.59019 2.83547 8.10287C4.44969 10.0927 6.87609 11.3922 9.59688 11.5343C9.54613 11.2907 9.51566 11.0369 9.51566 10.7831C9.51566 8.97597 10.9776 7.50391 12.7948 7.50391C13.739 7.50391 14.5918 7.89984 15.1908 8.53944C15.9319 8.39731 16.6425 8.12319 17.272 7.74756C17.0283 8.509 16.5106 9.14859 15.8304 9.55466C16.4903 9.48363 17.1299 9.30084 17.7187 9.04706C17.2721 9.69678 16.7137 10.2754 16.0741 10.7425Z" fill="#3B82F6"/>
</g>
<defs>
<clipPath id="clip0_5_175">
<rect width="16" height="16" fill="white" transform="translate(1.71875 6)"/>
</clipPath>
</defs>
</svg>
