<svg width="19" height="24" viewBox="0 0 19 24" fill="none" xmlns="http://www.w3.org/2000/svg">
<g clip-path="url(#clip0_5_172)">
<path d="M5.31562 10.5781C5.35625 10.8187 5.56563 11 5.81563 11H6.33125C6.6375 11 6.88125 10.7344 6.84062 10.4375C6.72187 9.55625 6.32813 8.74375 5.69688 8.10313C5.24688 7.64375 4.95938 7.0625 4.87188 6.43125C4.8375 6.18438 4.625 6 4.36875 6H3.85625C3.55 6 3.3125 6.26562 3.34687 6.5625C3.46875 7.55937 3.90937 8.47813 4.61562 9.2C4.99062 9.58125 5.23125 10.0594 5.31562 10.5781ZM8.81563 10.5781C8.85625 10.8187 9.06563 11 9.31563 11H9.83125C10.1375 11 10.3812 10.7344 10.3406 10.4375C10.2219 9.55625 9.82813 8.74375 9.19688 8.10313C8.74688 7.64375 8.45937 7.0625 8.37187 6.43125C8.3375 6.18438 8.125 6 7.86875 6H7.35625C7.05 6 6.80938 6.26562 6.84688 6.5625C6.96875 7.55937 7.40937 8.47813 8.11562 9.2C8.49062 9.58125 8.73125 10.0594 8.81563 10.5781ZM13.8438 12H2.34375C1.79062 12 1.34375 12.4469 1.34375 13V19C1.34375 20.6562 2.6875 22 4.34375 22H10.3438C12 22 13.3438 20.6562 13.3438 19H13.8438C15.775 19 17.3438 17.4312 17.3438 15.5C17.3438 13.5688 15.775 12 13.8438 12ZM13.8438 17H13.3438V14H13.8438C14.6719 14 15.3438 14.6719 15.3438 15.5C15.3438 16.3281 14.6719 17 13.8438 17Z" fill="#3B82F6"/>
</g>
<defs>
<clipPath id="clip0_5_172">
<rect width="16" height="16" fill="white" transform="translate(1.34375 6)"/>
</clipPath>
</defs>
</svg>
